<svg viewBox="0 0 512 512" xmlns="http://www.w3.org/2000/svg">
  <!-- Layer cyan (geser kiri) -->
  <path transform="translate(-6, 2)"
    d="M412.19,118.66a109.27,109.27,0,0,1-9.45-5.5,132.87,132.87,0,0,1-24.27-20.62c-18.1-20.71-24.86-41.72-27.35-56.43h.1C349.14,23.9,350,16,350.13,16H267.69V334.78c0,4.55,0,9.05-.18,13.49,0,.52-.05,1-.08,1.56,0,.23,0,.46-.05.68v.4a56.54,56.54,0,0,1-63.7,51.29,56.2,56.2,0,0,1-45.07-55.7,56.53,56.53,0,0,1,56.54-56.54,55.65,55.65,0,0,1,17.16,2.7l.1-83.94a140.92,140.92,0,0,0-17.26-1.07,141.35,141.35,0,0,0-100.1,41.42,138.8,138.8,0,0,0-29,43.7,136.25,136.25,0,0,0-9.38,49.16,140.53,140.53,0,0,0,140.55,141.22h.18a139.6,139.6,0,0,0,140.53-141.22V228.84c17.59,12.64,39.19,19.92,62.85,21.48V167.06C423.1,146.59,416.2,131.64,412.19,118.66Z"
    fill="#69C9D0" opacity="0.85"/>
  <!-- Layer pink (geser kanan) -->
  <path transform="translate(6, -2)"
    d="M412.19,118.66a109.27,109.27,0,0,1-9.45-5.5,132.87,132.87,0,0,1-24.27-20.62c-18.1-20.71-24.86-41.72-27.35-56.43h.1C349.14,23.9,350,16,350.13,16H267.69V334.78c0,4.55,0,9.05-.18,13.49,0,.52-.05,1-.08,1.56,0,.23,0,.46-.05.68v.4a56.54,56.54,0,0,1-63.7,51.29,56.2,56.2,0,0,1-45.07-55.7,56.53,56.53,0,0,1,56.54-56.54,55.65,55.65,0,0,1,17.16,2.7l.1-83.94a140.92,140.92,0,0,0-17.26-1.07,141.35,141.35,0,0,0-100.1,41.42,138.8,138.8,0,0,0-29,43.7,136.25,136.25,0,0,0-9.38,49.16,140.53,140.53,0,0,0,140.55,141.22h.18a139.6,139.6,0,0,0,140.53-141.22V228.84c17.59,12.64,39.19,19.92,62.85,21.48V167.06C423.1,146.59,416.2,131.64,412.19,118.66Z"
    fill="#EE1D52" opacity="0.85"/>
  <!-- Layer hitam (tengah / utama) -->
  <path
    d="M412.19,118.66a109.27,109.27,0,0,1-9.45-5.5,132.87,132.87,0,0,1-24.27-20.62c-18.1-20.71-24.86-41.72-27.35-56.43h.1C349.14,23.9,350,16,350.13,16H267.69V334.78c0,4.55,0,9.05-.18,13.49,0,.52-.05,1-.08,1.56,0,.23,0,.46-.05.68v.4a56.54,56.54,0,0,1-63.7,51.29,56.2,56.2,0,0,1-45.07-55.7,56.53,56.53,0,0,1,56.54-56.54,55.65,55.65,0,0,1,17.16,2.7l.1-83.94a140.92,140.92,0,0,0-17.26-1.07,141.35,141.35,0,0,0-100.1,41.42,138.8,138.8,0,0,0-29,43.7,136.25,136.25,0,0,0-9.38,49.16,140.53,140.53,0,0,0,140.55,141.22h.18a139.6,139.6,0,0,0,140.53-141.22V228.84c17.59,12.64,39.19,19.92,62.85,21.48V167.06C423.1,146.59,416.2,131.64,412.19,118.66Z"
    fill="#0d0d0d"/>
</svg>
